<svg width="900" height="600" viewBox="0 0 900 600" fill="none" xmlns="http://www.w3.org/2000/svg">
  <defs>
    <linearGradient id="bg1" x1="0" y1="0" x2="900" y2="600" gradientUnits="userSpaceOnUse">
      <stop stop-color="#F8E3D0"/>
      <stop offset="1" stop-color="#7C5B42"/>
    </linearGradient>
    <linearGradient id="cup" x1="360" y1="210" x2="540" y2="470" gradientUnits="userSpaceOnUse">
      <stop stop-color="#FFF5E8"/>
      <stop offset="1" stop-color="#E7C7A8"/>
    </linearGradient>
  </defs>
  <rect width="900" height="600" rx="40" fill="url(#bg1)"/>
  <ellipse cx="450" cy="520" rx="250" ry="40" fill="rgba(255,255,255,0.25)"/>
  <path d="M300 280C300 250 325 230 360 230H540C575 230 600 250 600 280V380C600 410 575 430 540 430H360C325 430 300 410 300 380V280Z" fill="url(#cup)" stroke="#F5E3D2" stroke-width="6"/>
  <path d="M310 280C310 250 335 230 370 230H540C575 230 600 250 600 280" stroke="#C49A78" stroke-width="8" stroke-linecap="round"/>
  <path d="M540 280H600C620 280 634 294 634 314V344C634 364 620 378 600 378H540" fill="#F8E3D0" stroke="#C49A78" stroke-width="6"/>
  <path d="M360 260C390 245 430 245 460 260" stroke="#C49A78" stroke-width="5" stroke-linecap="round"/>
  <path d="M395 245C420 235 455 235 480 245" stroke="#C49A78" stroke-width="4" stroke-linecap="round"/>
</svg>